<?xml version="1.0" encoding="iso-8859-1"?>
<!-- Generator: Adobe Illustrator 19.0.0, SVG Export Plug-In . SVG Version: 6.00 Build 0)  -->
<svg version="1.1" id="Layer_1" xmlns="http://www.w3.org/2000/svg" xmlns:xlink="http://www.w3.org/1999/xlink" x="0px" y="0px"
	 viewBox="0 0 511.999 511.999" style="enable-background:new 0 0 511.999 511.999;" xml:space="preserve">
<g>
	<g>
		<path d="M378.435,189.227H267.13v-87.188c0-6.146-4.983-11.13-11.13-11.13s-11.13,4.984-11.13,11.13v87.188h-55.652
			c-6.147,0-11.13,4.984-11.13,11.13s4.983,11.13,11.13,11.13h189.217c61.373,0,111.304,49.93,111.304,111.304
			s-49.931,111.304-111.304,111.304c-30.748,0-60.422-12.909-81.412-35.417c-2.106-2.257-5.053-3.539-8.14-3.539h-65.765
			c-3.086,0-6.035,1.281-8.14,3.539c-20.99,22.509-50.665,35.417-81.412,35.417c-61.373,0-111.304-49.93-111.304-111.304
			s49.931-111.304,111.304-111.304h11.13c6.147,0,11.13-4.984,11.13-11.13s-4.983-11.13-11.13-11.13h-11.13
			C59.917,189.227,0,249.144,0,322.792s59.917,133.565,133.565,133.565c35.255,0,69.333-14.141,94.266-38.957h56.337
			c24.933,24.815,59.011,38.957,94.266,38.957c73.648,0,133.565-59.917,133.565-133.565S452.083,189.227,378.435,189.227z"/>
	</g>
</g>
<g>
	<g>
		<path d="M200.904,288.009h-32.557v-32.557c0-6.146-4.983-11.13-11.13-11.13h-47.304c-6.147,0-11.13,4.984-11.13,11.13v32.557
			H66.226c-6.147,0-11.13,4.984-11.13,11.13v47.304c0,6.146,4.983,11.13,11.13,11.13h32.557v32.557c0,6.146,4.983,11.13,11.13,11.13
			h47.304c6.147,0,11.13-4.984,11.13-11.13v-32.557h32.557c6.147,0,11.13-4.984,11.13-11.13V299.14
			C212.035,292.994,207.052,288.009,200.904,288.009z M189.774,335.314h-32.557c-6.147,0-11.13,4.984-11.13,11.13v32.557h-25.043
			v-32.557c0-6.146-4.983-11.13-11.13-11.13H77.356V310.27h32.557c6.147,0,11.13-4.983,11.13-11.13v-32.557h25.043v32.557
			c0,6.146,4.983,11.13,11.13,11.13h32.557V335.314z"/>
	</g>
</g>
<g>
	<g>
		<path d="M378.435,233.749c-18.412,0-33.391,14.979-33.391,33.391c0,18.412,14.979,33.391,33.391,33.391
			c18.412,0,33.391-14.979,33.391-33.391C411.826,248.728,396.847,233.749,378.435,233.749z M378.435,278.27
			c-6.137,0-11.13-4.993-11.13-11.13s4.993-11.13,11.13-11.13s11.13,4.993,11.13,11.13S384.572,278.27,378.435,278.27z"/>
	</g>
</g>
<g>
	<g>
		<path d="M445.217,289.401c-18.412,0-33.391,14.979-33.391,33.391c0,18.412,14.979,33.391,33.391,33.391
			c18.412,0,33.391-14.979,33.391-33.391C478.609,304.38,463.629,289.401,445.217,289.401z M445.217,333.922
			c-6.137,0-11.13-4.993-11.13-11.13s4.993-11.13,11.13-11.13s11.13,4.993,11.13,11.13S451.355,333.922,445.217,333.922z"/>
	</g>
</g>
<g>
	<g>
		<path d="M311.652,289.401c-18.412,0-33.391,14.979-33.391,33.391c0,18.412,14.979,33.391,33.391,33.391
			c18.412,0,33.391-14.979,33.391-33.391C345.043,304.38,330.064,289.401,311.652,289.401z M311.652,333.922
			c-6.137,0-11.13-4.993-11.13-11.13s4.993-11.13,11.13-11.13s11.13,4.993,11.13,11.13S317.789,333.922,311.652,333.922z"/>
	</g>
</g>
<g>
	<g>
		<path d="M378.435,345.053c-18.412,0-33.391,14.979-33.391,33.391c0,18.412,14.979,33.391,33.391,33.391
			c18.412,0,33.391-14.979,33.391-33.391C411.826,360.032,396.847,345.053,378.435,345.053z M378.435,389.575
			c-6.137,0-11.13-4.993-11.13-11.13s4.993-11.13,11.13-11.13s11.13,4.993,11.13,11.13S384.572,389.575,378.435,389.575z"/>
	</g>
</g>
<g>
	<g>
		<path d="M266.908,64.588c-0.134-0.712-0.356-1.414-0.634-2.081c-0.278-0.668-0.623-1.313-1.024-1.924
			c-0.401-0.601-0.868-1.169-1.38-1.693c-2.593-2.581-6.433-3.762-10.04-3.037c-0.712,0.145-1.414,0.356-2.081,0.634
			c-0.679,0.278-1.325,0.623-1.926,1.024c-0.612,0.411-1.18,0.867-1.692,1.379c-0.512,0.524-0.979,1.091-1.38,1.693
			c-0.401,0.612-0.746,1.258-1.024,1.924c-0.278,0.669-0.49,1.369-0.634,2.081c-0.145,0.723-0.223,1.459-0.223,2.182
			c0,0.723,0.078,1.459,0.223,2.17c0.145,0.712,0.356,1.415,0.634,2.081c0.278,0.668,0.623,1.313,1.024,1.924
			c0.401,0.601,0.868,1.181,1.38,1.693s1.08,0.979,1.692,1.38c0.601,0.4,1.247,0.746,1.926,1.024
			c0.668,0.278,1.369,0.489,2.081,0.633c0.712,0.146,1.447,0.223,2.17,0.223s1.458-0.077,2.17-0.223
			c0.712-0.145,1.414-0.355,2.081-0.633c0.679-0.278,1.325-0.624,1.926-1.024c0.612-0.401,1.18-0.868,1.692-1.38
			s0.979-1.091,1.38-1.693c0.401-0.612,0.746-1.258,1.024-1.924c0.278-0.667,0.501-1.369,0.634-2.081
			c0.156-0.712,0.223-1.447,0.223-2.17C267.13,66.047,267.064,65.312,266.908,64.588z"/>
	</g>
</g>
<g>
</g>
<g>
</g>
<g>
</g>
<g>
</g>
<g>
</g>
<g>
</g>
<g>
</g>
<g>
</g>
<g>
</g>
<g>
</g>
<g>
</g>
<g>
</g>
<g>
</g>
<g>
</g>
<g>
</g>
</svg>
