<svg height="512pt" viewBox="0 -1 512.0002 512" width="512pt" xmlns="http://www.w3.org/2000/svg"><path d="m79.617188 105.710938h182.300781c5.523437 0 10-4.476563 10-10 0-5.523438-4.476563-10-10-10h-169.789063c3.8125-10.648438 11.238282-19.613282 21.332032-25.441407 17.425781-10.0625 39.558593-8.207031 55.070312 4.609375 2.222656 1.835938 5.132812 2.625 7.984375 2.15625 2.847656-.464844 5.355469-2.140625 6.878906-4.59375 10.09375-16.261718 27.527344-25.972656 46.628907-25.972656 8.066406 0 15.847656 1.722656 23.128906 5.117188 3.882812 1.8125 8.488281.949218 11.449218-2.144532 12.011719-12.535156 28.175782-19.441406 45.515626-19.441406 25.171874 0 47.8125 15.273438 57.746093 37.667969-1 .117187-2 .269531-2.992187.425781-21.03125 3.230469-40.007813 14.296875-53.339844 31.492188-.207031.269531-.402344.546874-.582031.832031-10.628907 14.046875-16.953125 31.527343-16.953125 50.460937 0 5.523438 4.480468 10 10 10h35.726562c5.519532 0 10-4.476562 10-10 0-5.523437-4.480468-10-10-10h-24.941406c4.324219-27.351562 26.097656-48.960937 53.519531-53.070312 3.132813-.464844 6.308594-.714844 9.480469-.714844 24.488281 0 47.109375 14.304688 57.632812 36.4375 1.230469 2.589844 3.515626 4.523438 6.265626 5.316406 2.757812.792969 5.714843.367188 8.132812-1.171875 4.402344-2.796875 9.488281-4.277343 14.710938-4.277343 11.625 0 21.585937 7.257812 25.59375 17.480468h-72.277344c-5.523438 0-10 4.476563-10 10 0 5.519532 4.476562 10 10 10h84.160156c5.523438 0 10-4.480468 10-10 0-26.179687-21.296875-47.480468-47.476562-47.480468-5.457032 0-10.828126.9375-15.90625 2.742187-13.167969-20.757813-35.019532-34.8125-59.308594-38.230469-4.886719-15.339844-14.242188-29.121094-26.84375-39.355468-14.734375-11.964844-33.324219-18.554688-52.347656-18.554688-20.523438 0-39.796876 7.339844-54.96875 20.804688-8.042969-2.878907-16.464844-4.335938-25.125-4.335938-22.523438 0-43.339844 9.886719-57.464844 26.878906-20.988282-12.390625-47.582032-12.824218-69.101563-.398437-18.71875 10.8125-31.347656 30.117187-33.773437 51.640625-.320313 2.828125.582031 5.660156 2.476562 7.785156 1.898438 2.121094 4.609375 3.335938 7.457032 3.335938zm0 0"/><path d="m387.300781 135.324219c-2.347656-3.582031-6.957031-5.234375-11.058593-4.054688-3.957032 1.136719-6.890626 4.671875-7.21875 8.789063-.328126 4.167968 2.023437 8.199218 5.839843 9.925781 3.746094 1.699219 8.289063.875 11.195313-2.039063 3.324218-3.335937 3.855468-8.703124 1.242187-12.621093zm0 0"/><path d="m446.96875 425.9375c-22.414062-20.765625-47.992188-37.15625-75.558594-48.714844h13.484375c20.167969 0 36.578125-16.410156 36.578125-36.578125 0-10.519531-4.507812-20.515625-12.371094-27.433593-2.902343-2.554688-5.941406-5.074219-9.03125-7.492188-34.046874-26.625-76.582031-42.03125-120.621093-43.835938l-25.621094-68.210937c-1.464844-3.898437-5.195313-6.484375-9.359375-6.484375h-12.363281c2.730469-5.050781 8.074219-8.496094 14.210937-8.496094 6.628906 0 12.507813 3.976563 14.980469 10.125l19.144531 47.632813c1.570313 3.902343 5.320313 6.273437 9.28125 6.273437 1.242188 0 2.503906-.230468 3.726563-.722656 5.125-2.058594 7.609375-7.882812 5.550781-13.007812l-19.148438-47.636719c-5.53125-13.765625-18.695312-22.664063-33.535156-22.664063-19.929687 0-36.144531 16.214844-36.144531 36.144532v66.867187h-35.875l-25.554687-68.03125c-1.464844-3.898437-5.195313-6.480469-9.359376-6.480469h-12.363281c2.726563-5.054687 8.074219-8.496094 14.210938-8.496094 6.628906 0 12.507812 3.972657 14.980469 10.121094l19.144531 47.636719c1.570312 3.902344 5.320312 6.273437 9.28125 6.273437 1.242187 0 2.503906-.234374 3.726562-.726562 5.125-2.058594 7.609375-7.882812 5.550781-13.007812l-19.148437-47.636719c-5.53125-13.765625-18.695313-22.660157-33.535156-22.660157-19.929688 0-36.144531 16.210938-36.144531 36.144532v66.867187h-35.875l-25.554688-68.03125c-1.464844-3.902343-5.195312-6.484375-9.359375-6.484375h-12.363281c2.726562-5.054687 8.074218-8.496094 14.210937-8.496094 6.628907 0 12.507813 3.972657 14.980469 10.121094l19.144531 47.636719c1.570313 3.902344 5.320313 6.273437 9.28125 6.273437 1.242188 0 2.503907-.234374 3.726563-.722656 5.125-2.0625 7.609375-7.886718 5.550781-13.011718l-19.148437-47.632813c-5.53125-13.769531-18.695313-22.664063-33.535157-22.664063-19.929687-.003906-36.144531 16.210938-36.144531 36.140626v172.386718c0 5.523438 4.476562 10 10 10h261.683594c60.144531 0 117.570312 22.511719 161.695312 63.386719l61.824219 57.273437c1.925781 1.785157 4.363281 2.664063 6.792969 2.664063 2.691406 0 5.367187-1.074219 7.339844-3.203125 3.753906-4.050781 3.511718-10.378906-.539063-14.132812zm-216.796875-218.75h7.367187l20.480469 54.515625h-27.847656zm-105.085937 0h7.367187l20.480469 54.515625h-27.847656zm-77.238282 54.515625h-27.847656v-54.515625h7.367188zm-27.847656 95.519531v-75.519531h250.707031c41.378907 0 81.710938 13.277344 114.019531 37.460937h-294.101562c-5.523438 0-10 4.476563-10 10 0 5.523438 4.476562 10 10 10h310.769531c.042969.488282.078125.980469.078125 1.480469 0 9.140625-7.4375 16.578125-16.578125 16.578125zm0 0"/><path d="m432.96875 460.753906c-11.558594-10.707031-23.730469-20.199218-36.414062-28.46875-.429688-.324218-.875-.628906-1.355469-.886718-22.839844-14.683594-47.355469-25.367188-73.03125-31.871094-.582031-.207032-1.1875-.363282-1.8125-.460938-18.996094-4.65625-38.617188-7.027344-58.671875-7.027344h-251.683594c-5.523438 0-10 4.476563-10 10 0 5.523438 4.476562 10 10 10h19.675781v88.203126c0 5.523437 4.476563 10 10 10 5.523438 0 10-4.476563 10-10v-88.203126h49.777344v88.203126c0 5.523437 4.480469 10 10 10 5.523437 0 10-4.476563 10-10v-88.203126h49.78125v88.203126c0 5.523437 4.476563 10 10 10 5.519531 0 10-4.476563 10-10v-88.203126h49.777344v88.203126c0 5.523437 4.476562 10 10 10 5.523437 0 10-4.476563 10-10v-88.203126h2.671875c16.035156 0 31.777344 1.660157 47.105468 4.917969v83.285157c0 5.523437 4.480469 10 10 10 5.523438 0 10-4.476563 10-10v-78.054688c17.976563 5.605469 35.273438 13.492188 51.675782 23.585938v54.46875c0 5.523437 4.480468 10 10 10 5.523437 0 10-4.476563 10-10v-40.726563c6.460937 4.921875 12.753906 10.203125 18.859375 15.859375l34.558593 32.460938c1.929688 1.8125 4.390626 2.710937 6.84375 2.710937 2.664063 0 5.324219-1.058594 7.292969-3.152344 3.78125-4.027343 3.582031-10.355469-.445312-14.136719zm0 0"/><path d="m60.011719 325.335938c-1.613281-3.867188-5.585938-6.390626-9.773438-6.164063-4.160156.226563-7.820312 3.105469-9.027343 7.089844-1.1875 3.921875.195312 8.34375 3.472656 10.832031 3.386718 2.570312 8.09375 2.726562 11.636718.378906 3.941407-2.609375 5.476563-7.78125 3.691407-12.136718zm0 0"/></svg>