<svg height="512pt" viewBox="0 -65 512 512" width="512pt" xmlns="http://www.w3.org/2000/svg"><g fill-rule="evenodd"><path d="m113.480469 65.261719c-26.585938 0-48.21875 21.632812-48.21875 48.222656s21.628906 48.21875 48.21875 48.21875c26.589843 0 48.222656-21.628906 48.222656-48.21875s-21.632813-48.222656-48.222656-48.222656zm0 76.441406c-15.558594 0-28.21875-12.65625-28.21875-28.21875s12.660156-28.222656 28.21875-28.222656c15.5625 0 28.222656 12.660156 28.222656 28.222656s-12.660156 28.21875-28.222656 28.21875zm0 0"/><path d="m320.445312 65.261719c-26.589843 0-48.222656 21.632812-48.222656 48.222656s21.632813 48.21875 48.222656 48.21875c26.589844 0 48.222657-21.628906 48.222657-48.21875s-21.632813-48.222656-48.222657-48.222656zm0 76.441406c-15.558593 0-28.222656-12.65625-28.222656-28.21875s12.660156-28.222656 28.222656-28.222656 28.222657 12.660156 28.222657 28.222656-12.660157 28.21875-28.222657 28.21875zm0 0"/><path d="m73.175781 317.878906c-5.523437 0-10 4.476563-10 10 0 5.523438 4.476563 10 10 10h42.714844c5.523437 0 10-4.476562 10-10 0-5.523437-4.476563-10-10-10zm0 0"/><path d="m502 177.570312h-44.929688c-.351562 0-.699218.019532-1.039062.054688-.007812 0-.011719.003906-.015625.003906-.394531.039063-.777344.109375-1.152344.195313-.089843.019531-.179687.042969-.269531.066406-.308594.082031-.609375.171875-.90625.277344-.085938.03125-.171875.0625-.261719.097656-.394531.15625-.78125.328125-1.152343.53125l-37.496094 20.128906v-22.429687c12.089844-18.035156 19.148437-39.714844 19.148437-63.015625 0-62.574219-50.90625-113.480469-113.480469-113.480469-45.988281 0-85.675781 27.496094-103.480468 66.914062-17.808594-39.417968-57.496094-66.914062-103.484375-66.914062-62.574219 0-113.480469 50.90625-113.480469 113.484375 0 23.296875 7.0625 44.976563 19.148438 63.011719v167.6875c0 21.296875 17.328124 38.621094 38.621093 38.621094h119.195313c5.523437 0 10-4.476563 10-10 0-5.523438-4.476563-10-10-10h-119.195313c-10.265625 0-18.621093-8.351563-18.621093-18.621094v-145.019532c19.929687 17.308594 45.929687 27.800782 74.335937 27.800782 45.988281 0 85.671875-27.496094 103.480469-66.914063 17.808594 39.414063 57.496094 66.914063 103.480468 66.914063 28.40625 0 54.40625-10.492188 74.332032-27.800782v145.019532c0 10.269531-8.351563 18.621094-18.617188 18.621094h-119.195312c-5.523438 0-10 4.476562-10 10 0 5.523437 4.476562 10 10 10h119.191406c21.296875 0 38.621094-17.324219 38.621094-38.621094v-33.921875l37.496094 20.128906c.359374.195313.730468.363281 1.113281.515625.085937.035156.171875.0625.257812.097656.273438.097656.554688.1875.835938.261719.105469.027344.207031.054687.3125.082031.277343.0625.5625.117188.847656.15625.097656.015625.195313.03125.292969.046875.375.042969.753906.066407 1.140625.066407h44.925781c5.523438 0 10-4.476563 10-10v-134.046876c0-5.523437-4.476562-10-10-10zm-388.519531 29.394532c-51.542969 0-93.480469-41.9375-93.480469-93.480469 0-51.546875 41.9375-93.484375 93.480469-93.484375s93.472656 41.925781 93.484375 93.464844v.019531.019531c-.011719 51.535156-41.941406 93.460938-93.484375 93.460938zm206.964843 0c-51.539062 0-93.46875-41.925782-93.480468-93.460938 0-.007812 0-.015625 0-.023437 0-.003907 0-.011719 0-.019531.011718-51.535157 41.941406-93.460938 93.480468-93.460938 51.546876 0 93.484376 41.9375 93.484376 93.480469 0 51.546875-41.9375 93.484375-93.484376 93.484375zm94.332032 14.660156 32.292968-17.335938v100.609376l-32.292968-17.335938zm77.222656 89.992188h-24.929688v-114.046876h24.929688zm0 0"/><path d="m216.964844 362.804688c-5.507813 0-10 4.492187-10 10 0 5.507812 4.492187 10 10 10 5.507812 0 10-4.492188 10-10 0-5.507813-4.492188-10-10-10zm0 0"/></g></svg>